<?xml version="1.0" encoding="utf-8"?>
<!-- Generator: Adobe Illustrator 26.0.1, SVG Export Plug-In . SVG Version: 6.00 Build 0)  -->
<svg version="1.1" id="Layer_1" xmlns="http://www.w3.org/2000/svg" xmlns:xlink="http://www.w3.org/1999/xlink" x="0px" y="0px"
	 viewBox="0 0 1366 768" style="enable-background:new 0 0 1366 768;" xml:space="preserve">
<style type="text/css">
	.st0{display:none;fill:#3B56A6;}
	.st1{display:none;fill:none;stroke:#000000;stroke-miterlimit:10;}
	.st2{display:none;}
	.st3{display:inline;fill:none;stroke:#000000;stroke-miterlimit:10;}
	.st4{display:inline;stroke:#000000;stroke-miterlimit:10;}
	.st5{fill:#F0F0F0;stroke:#F0F0F0;stroke-miterlimit:10;}
	.st6{stroke:#000000;stroke-miterlimit:10;}
	.st7{fill:none;}
	.st8{font-family:'Poppins-Bold';}
	.st9{font-size:80px;}
	.st10{letter-spacing:3;}
	.st11{font-size:50px;}
	.st12{letter-spacing:17;}
</style>
<g id="Layer_2_00000058566065970388399860000016291085377509763721_">
	<rect x="-50.7" y="86" class="st0" width="648.7" height="639"/>
	<rect x="259.5" y="185.9" class="st1" width="31.2" height="438.4"/>
	<g id="Layer_3">
		<g class="st2">
			<polygon class="st3" points="269.6,240.3 269.6,594.3 225.3,568.8 199.7,554 155.5,528.5 155.5,285.7 199.7,285.7 199.7,502.9 
				199.7,502.9 225.3,517.7 225.3,260.1 155.5,260.1 114.5,215.8 245.1,215.8 			"/>
			<path class="st3" d="M305,215.8l-24.5,24.5v354l44.2-25.5l25.6-14.8l44.2-25.5V260.1l40.9-44.2H305z M350.4,502.9L350.4,502.9
				l-25.6,14.8V260.1h25.6V502.9z"/>
		</g>
		<polygon class="st1" points="394.7,193.8 394.7,204.8 300.4,204.8 275.1,230.2 249.7,204.8 155.5,204.8 155.5,193.8 		"/>
		<g class="st2">
			<path class="st4" d="M377.5,490.6l-34.9,20.1l-60.1,34.7v67.4l60.1-34.7l34.9-20.1l60.1-34.7v-67.4L377.5,490.6z"/>
			<path class="st4" d="M112.5,287.4v34.9h60.1v-34.9H112.5z M207.5,510.7l-34.9-20.1l-60.1-34.7v67.4l60.1,34.7l34.9,20.1
				l60.1,34.7v-67.4L207.5,510.7z"/>
		</g>
		<g>
			<path class="st5" d="M288.4,275.3l-27.4,27.4v234.7l49.5-28.6l28.7-16.6l49.5-28.6V324.8l45.8-49.5H288.4z M339.2,435.1
				L339.2,435.1l-28.7,16.6V324.8h28.7V435.1z"/>
			<polygon class="st5" points="248.6,302.8 248.6,537.5 199.1,508.9 170.4,492.3 120.8,463.7 120.8,353.6 170.4,353.6 170.4,435.1 
				170.4,435.1 199.1,451.7 199.1,324.8 120.8,324.8 75,275.3 221.2,275.3 			"/>
			<polygon class="st5" points="388.7,250.6 388.7,263 283.2,263 254.8,291.4 226.3,263 120.8,263 120.8,250.6 238.4,250.6 
				254.8,267 271.1,250.6 			"/>
		</g>
	</g>
	<g class="st2">
		<rect x="155.5" y="285.7" class="st4" width="44.2" height="103.2"/>
		<polygon class="st4" points="269.6,240.3 269.6,388.9 225.3,388.9 225.3,260.1 155.5,260.1 114.6,215.8 245.1,215.8 		"/>
		<polygon class="st4" points="269.6,388.9 269.6,519 225.3,493.5 199.7,478.7 155.5,453.2 155.5,388.9 199.7,388.9 199.7,427.7 
			199.7,427.7 225.3,442.5 225.3,388.9 		"/>
		<rect x="350.4" y="285.7" class="st4" width="44.2" height="103.2"/>
		<polygon class="st4" points="280.6,240.3 280.6,388.9 324.8,388.9 324.8,260.1 394.7,260.1 435.5,215.8 305,215.8 		"/>
		<polygon class="st4" points="280.6,388.9 280.6,519 324.8,493.5 350.4,478.7 394.7,453.2 394.7,388.9 350.4,388.9 350.4,427.7 
			350.4,427.7 324.8,442.5 324.8,388.9 		"/>
		<path class="st6" d="M350.4,464.1v38.8l0,0l-25.6,14.8v-53.6h-44.2v130.2l44.2-25.5l25.6-14.8l44.2-25.5v-64.3H350.4z M305,215.8
			l-24.5,24.5v148.5h44.2V260.1h25.6v128.8h44.2V260.1l40.9-44.2H305z"/>
		<polygon class="st4" points="394.7,193.8 394.7,204.8 300.4,204.8 275.1,230.2 249.7,204.8 155.5,204.8 155.5,193.8 		"/>
	</g>
	<g class="st2">
		<polygon class="st4" points="267.6,260.5 267.6,612.8 207.5,578.1 172.6,558 112.5,523.3 112.5,322.2 172.6,322.2 172.6,488.6 
			172.6,488.6 207.5,508.7 207.5,287.4 112.5,287.4 56.8,227.2 234.3,227.2 		"/>
		<path class="st4" d="M315.9,227.2l-33.3,33.3v352.3l60.1-34.7l34.9-20.1l60.1-34.7V287.4l55.6-60.1H315.9z M377.5,488.6
			L377.5,488.6l-34.9,20.1V287.3h34.9V488.6z"/>
		<polygon class="st4" points="437.6,197.3 437.6,212.3 309.6,212.3 275.1,246.8 240.6,212.3 112.5,212.3 112.5,197.3 		"/>
	</g>
</g>
<rect x="427" y="315.1" class="st7" width="869" height="62.9"/>
<text transform="matrix(1 0 0 1 426.9575 374.2842)" class="st5 st8 st9 st10">JOMMELDALISAYMO</text>
<text transform="matrix(1 0 0 1 437.7236 430.8301)" class="st5 st8 st11 st12">ThinkOutsideTheBox</text>
</svg>
