<?xml version="1.0" encoding="utf-8"?>
<!-- Generator: Adobe Illustrator 26.0.1, SVG Export Plug-In . SVG Version: 6.00 Build 0)  -->
<svg version="1.1" xmlns="http://www.w3.org/2000/svg" xmlns:xlink="http://www.w3.org/1999/xlink" x="0px" y="0px"
	 viewBox="0 0 1280 1280" style="enable-background:new 0 0 1280 1280;" xml:space="preserve">
<style type="text/css">
	.st0{display:none;}
	.st1{fill:#FFFFFF;stroke:#000000;stroke-miterlimit:10;}
	.st2{fill:none;stroke:#000000;stroke-miterlimit:10;}
	.st3{fill:#0E8B44;}
	.st4{display:none;fill:none;stroke:#000000;stroke-miterlimit:10;}
	.st5{display:inline;fill:none;stroke:#000000;stroke-miterlimit:10;}
	.st6{display:inline;stroke:#000000;stroke-miterlimit:10;}
	.st7{stroke:#000000;stroke-miterlimit:10;}
	.st8{display:none;stroke:#000000;stroke-miterlimit:10;}
	.st9{fill:#F1F0F0;stroke:#F1F0F0;stroke-miterlimit:10;}
</style>
<g id="Layer_1" class="st0">
	<rect x="96.2" y="96.2" class="st1" width="1087.5" height="1087.5"/>
	
		<rect x="200.2" y="96.2" transform="matrix(-1 -5.070356e-11 5.070356e-11 -1 1264.6812 1168.629)" class="st1" width="864.2" height="976.1"/>
	<line class="st2" x1="200.2" y1="751" x2="638.9" y2="1072.4"/>
	<line class="st2" x1="1064.5" y1="751" x2="640" y2="1072.4"/>
	<rect x="96.2" y="96.2" class="st2" width="1087.5" height="78.2"/>
	<line class="st2" x1="640" y1="135.3" x2="640" y2="1092.1"/>
	<line class="st2" x1="200.2" y1="751" x2="1064.5" y2="751"/>
	
		<rect x="615" y="135.3" transform="matrix(-1 -1.224647e-16 1.224647e-16 -1 1280.0426 1207.7274)" class="st2" width="50.1" height="937"/>
	<polygon class="st2" points="705.8,173.3 705.8,97.4 640,59.4 574.2,97.4 574.2,173.3 640,211.3 	"/>
	<line class="st2" x1="96.2" y1="296.9" x2="1183.8" y2="296.9"/>
	<line class="st2" x1="96.2" y1="356.7" x2="1183.8" y2="356.7"/>
	<line class="st2" x1="96.3" y1="698.9" x2="1183.8" y2="698.9"/>
	<line class="st2" x1="329.2" y1="65.7" x2="329.2" y2="751"/>
	<line class="st2" x1="926.8" y1="65.7" x2="926.8" y2="751"/>
	<line class="st2" x1="329.2" y1="698.9" x2="850.6" y2="1072.4"/>
	<line class="st2" x1="926.8" y1="698.9" x2="429.4" y2="1064.3"/>
</g>
<g id="Layer_2">
	<rect class="st3" width="1280" height="1280"/>
	<rect x="607.7" y="186.6" class="st4" width="64.6" height="906.9"/>
	<g id="Layer_3">
		<g class="st0">
			<polygon class="st5" points="628.6,299.2 628.6,1031.5 537.1,978.7 484.1,948.1 392.6,895.3 392.6,393 484.1,393 484.1,842.4 
				484.1,842.4 537.1,873 537.1,340 392.6,340 307.9,248.5 578,248.5 			"/>
			<path class="st5" d="M702,248.5l-50.7,50.7v732.3l91.5-52.8l53-30.6l91.5-52.8V340l84.7-91.5H702z M795.9,842.4L795.9,842.4
				l-53,30.6V340h53V842.4z"/>
		</g>
		<polygon class="st4" points="887.4,203 887.4,225.7 692.5,225.7 640,278.3 587.5,225.7 392.6,225.7 392.6,203 		"/>
		<g class="st0">
			<rect x="392.6" y="393" class="st6" width="91.5" height="213.5"/>
			<polygon class="st6" points="628.6,299.2 628.6,606.5 537.1,606.5 537.1,340 392.6,340 308,248.5 578,248.5 			"/>
			<polygon class="st6" points="628.6,606.5 628.6,875.8 537.1,823 484.1,792.4 392.6,739.6 392.6,606.5 484.1,606.5 484.1,686.8 
				484.1,686.8 537.1,717.4 537.1,606.5 			"/>
			<rect x="795.9" y="393" class="st6" width="91.5" height="213.5"/>
			<polygon class="st6" points="651.4,299.2 651.4,606.5 742.9,606.5 742.9,340 887.4,340 972,248.5 702,248.5 			"/>
			<polygon class="st6" points="651.4,606.5 651.4,875.8 742.9,823 795.9,792.4 887.4,739.6 887.4,606.5 795.9,606.5 795.9,686.8 
				795.9,686.8 742.9,717.4 742.9,606.5 			"/>
			<path class="st7" d="M795.9,762.2v80.2h0l-53,30.6V762.2h-91.5v269.3l91.5-52.8l53-30.6l91.5-52.8V762.2H795.9z M702,248.5
				l-50.7,50.7v307.3h91.5V340h53v266.5h91.5V340l84.7-91.5H702z"/>
		</g>
		<polygon class="st8" points="887.4,203 887.4,225.7 692.5,225.7 640,278.3 587.5,225.7 392.6,225.7 392.6,203 		"/>
		<g>
			<rect x="303.7" y="468.6" class="st9" width="124.4" height="290.3"/>
			<polygon class="st9" points="624.5,341 624.5,758.9 500.1,758.9 500.1,396.5 303.7,396.5 188.5,272.1 555.6,272.1 			"/>
			<polygon class="st9" points="624.5,703.7 624.5,1069.8 500.1,998.1 428.1,956.4 303.7,884.6 303.7,703.7 428.1,703.7 
				428.1,812.8 428.1,812.8 500.1,854.4 500.1,703.7 			"/>
			<rect x="851.9" y="396.5" class="st9" width="124.4" height="362.4"/>
			<polygon class="st9" points="655.5,341 655.5,758.9 779.9,758.9 779.9,396.5 976.3,396.5 1091.5,272.1 724.4,272.1 			"/>
			<polygon class="st9" points="655.5,703.7 655.5,1069.8 779.9,998.1 851.9,956.4 976.3,884.6 976.3,703.7 851.9,703.7 
				851.9,812.8 851.9,812.8 779.9,854.4 779.9,703.7 			"/>
			<polygon class="st9" points="976.3,210.2 976.3,241.1 711.4,241.1 640,312.6 568.6,241.1 303.7,241.1 303.7,210.2 			"/>
		</g>
	</g>
</g>
</svg>
