<?xml version="1.0" encoding="utf-8"?>
<!-- Generator: Adobe Illustrator 26.0.1, SVG Export Plug-In . SVG Version: 6.00 Build 0)  -->
<svg version="1.1" xmlns="http://www.w3.org/2000/svg" xmlns:xlink="http://www.w3.org/1999/xlink" x="0px" y="0px"
	 viewBox="0 0 1280 1280" style="enable-background:new 0 0 1280 1280;" xml:space="preserve">
<style type="text/css">
	.st0{display:none;}
	.st1{fill:#FFFFFF;stroke:#000000;stroke-miterlimit:10;}
	.st2{fill:none;stroke:#000000;stroke-miterlimit:10;}
	.st3{display:none;fill:#3B56A6;}
	.st4{display:none;fill:none;stroke:#000000;stroke-miterlimit:10;}
	.st5{display:inline;fill:none;stroke:#000000;stroke-miterlimit:10;}
	.st6{stroke:#000000;stroke-miterlimit:10;}
	.st7{fill:#15171B;stroke:#15171B;stroke-miterlimit:10;}
	.st8{display:inline;stroke:#000000;stroke-miterlimit:10;}
</style>
<g id="Layer_1" class="st0">
	<rect x="96.2" y="96.2" class="st1" width="1087.5" height="1087.5"/>
	
		<rect x="200.2" y="96.2" transform="matrix(-1 -5.070356e-11 5.070356e-11 -1 1264.6812 1168.629)" class="st1" width="864.2" height="976.1"/>
	<line class="st2" x1="200.2" y1="751" x2="638.9" y2="1072.4"/>
	<line class="st2" x1="1064.5" y1="751" x2="640" y2="1072.4"/>
	<rect x="96.2" y="96.2" class="st2" width="1087.5" height="78.2"/>
	<line class="st2" x1="640" y1="135.3" x2="640" y2="1092.1"/>
	<line class="st2" x1="200.2" y1="751" x2="1064.5" y2="751"/>
	
		<rect x="615" y="135.3" transform="matrix(-1 -1.224647e-16 1.224647e-16 -1 1280.0426 1207.7274)" class="st2" width="50.1" height="937"/>
	<polygon class="st2" points="705.8,173.3 705.8,97.4 640,59.4 574.2,97.4 574.2,173.3 640,211.3 	"/>
	<line class="st2" x1="96.2" y1="296.9" x2="1183.8" y2="296.9"/>
	<line class="st2" x1="96.2" y1="356.7" x2="1183.8" y2="356.7"/>
	<line class="st2" x1="96.3" y1="698.9" x2="1183.8" y2="698.9"/>
	<line class="st2" x1="329.2" y1="65.7" x2="329.2" y2="751"/>
	<line class="st2" x1="926.8" y1="65.7" x2="926.8" y2="751"/>
	<line class="st2" x1="329.2" y1="698.9" x2="850.6" y2="1072.4"/>
	<line class="st2" x1="926.8" y1="698.9" x2="429.4" y2="1064.3"/>
</g>
<g id="Layer_2">
	<rect x="-33.9" y="-20.1" class="st3" width="1342" height="1322"/>
	<rect x="607.7" y="186.6" class="st4" width="64.6" height="906.9"/>
	<g id="Layer_3">
		<g class="st0">
			<polygon class="st5" points="628.6,299.2 628.6,1031.5 537.1,978.7 484.1,948.1 392.6,895.3 392.6,393 484.1,393 484.1,842.4 
				484.1,842.4 537.1,873 537.1,340 392.6,340 307.9,248.5 578,248.5 			"/>
			<path class="st5" d="M702,248.5l-50.7,50.7v732.3l91.5-52.8l53-30.6l91.5-52.8V340l84.7-91.5H702z M795.9,842.4L795.9,842.4
				l-53,30.6V340h53V842.4z"/>
		</g>
		<polygon class="st4" points="887.4,203 887.4,225.7 692.5,225.7 640,278.3 587.5,225.7 392.6,225.7 392.6,203 		"/>
		<g class="st0">
			<path class="st6" d="M851.9,817l-72.1,41.6l-124.4,71.8v139.4L779.8,998l72.1-41.6l124.4-71.8V745.2L851.9,817z"/>
			<path class="st6" d="M303.7,396.5v72.1h124.4v-72.1H303.7z M500.2,858.6L428.1,817l-124.4-71.8v139.4l124.4,71.8l72.1,41.6
				l124.4,71.8V930.4L500.2,858.6z"/>
		</g>
		<g>
			<path class="st7" d="M737.6,295l-79.7,79.7v682l143.9-83.1l83.4-48.2l143.9-83.1V438.9L1162.3,295H737.6z M885.2,759.3
				L885.2,759.3l-83.4,48.1V438.9h83.4V759.3z"/>
			<polygon class="st7" points="622.1,374.7 622.1,1056.7 478.2,973.6 394.8,925.4 250.9,842.4 250.9,522.3 394.8,522.3 
				394.8,759.3 394.8,759.3 478.2,807.4 478.2,438.9 250.9,438.9 117.7,295 542.4,295 			"/>
			<polygon class="st7" points="1029.1,223.3 1029.1,259.2 722.6,259.2 640,341.8 557.4,259.2 250.9,259.2 250.9,223.3 592.4,223.3 
				640,270.9 687.6,223.3 			"/>
		</g>
	</g>
	<g class="st0">
		<rect x="392.6" y="393" class="st8" width="91.5" height="213.5"/>
		<polygon class="st8" points="628.6,299.2 628.6,606.5 537.1,606.5 537.1,340 392.6,340 308,248.5 578,248.5 		"/>
		<polygon class="st8" points="628.6,606.5 628.6,875.8 537.1,823 484.1,792.4 392.6,739.6 392.6,606.5 484.1,606.5 484.1,686.8 
			484.1,686.8 537.1,717.4 537.1,606.5 		"/>
		<rect x="795.9" y="393" class="st8" width="91.5" height="213.5"/>
		<polygon class="st8" points="651.4,299.2 651.4,606.5 742.9,606.5 742.9,340 887.4,340 972,248.5 702,248.5 		"/>
		<polygon class="st8" points="651.4,606.5 651.4,875.8 742.9,823 795.9,792.4 887.4,739.6 887.4,606.5 795.9,606.5 795.9,686.8 
			795.9,686.8 742.9,717.4 742.9,606.5 		"/>
		<path class="st6" d="M795.9,762.2v80.2h0l-53,30.6V762.2h-91.5v269.3l91.5-52.8l53-30.6l91.5-52.8V762.2H795.9z M702,248.5
			l-50.7,50.7v307.3h91.5V340h53v266.5h91.5V340l84.7-91.5H702z"/>
		<polygon class="st8" points="887.4,203 887.4,225.7 692.5,225.7 640,278.3 587.5,225.7 392.6,225.7 392.6,203 		"/>
	</g>
	<g class="st0">
		<polygon class="st8" points="624.5,341 624.5,1069.8 500.2,998 428.1,956.4 303.7,884.6 303.7,468.6 428.1,468.6 428.1,812.8 
			428.1,812.8 500.2,854.4 500.2,396.5 303.7,396.5 188.5,272.1 555.6,272.1 		"/>
		<path class="st8" d="M724.4,272.1L655.5,341v728.8L779.8,998l72.1-41.6l124.4-71.8V396.5l115.1-124.4H724.4z M851.9,812.8
			L851.9,812.8l-72.1,41.6v-458h72.1V812.8z"/>
		<polygon class="st8" points="976.3,210.2 976.3,241.1 711.4,241.1 640,312.6 568.6,241.1 303.7,241.1 303.7,210.2 		"/>
	</g>
</g>
</svg>
