<?xml version="1.0" encoding="utf-8"?>
<!-- Generator: Adobe Illustrator 26.0.1, SVG Export Plug-In . SVG Version: 6.00 Build 0)  -->
<svg version="1.1" id="Layer_1" xmlns="http://www.w3.org/2000/svg" xmlns:xlink="http://www.w3.org/1999/xlink" x="0px" y="0px"
	 viewBox="0 0 122.9 121.8" style="enable-background:new 0 0 122.9 121.8;" xml:space="preserve">
<style type="text/css">
	.st0{fill:#F0F0F0;}
</style>
<path class="st0" d="M6.9,0h42.9c2.1,0,4,0.9,5.3,2.5c0.5,0.6,0.9,1.3,1.2,2c0.3,0.7,0.4,1.5,0.4,2.3v42.7c0,1.9-0.8,3.7-2.1,5
	c-1.3,1.2-3,1.9-4.8,1.9H6.9c-0.9,0-1.7-0.2-2.5-0.5c-1.7-0.7-3.1-2-3.8-3.7C0.2,51.5,0,50.5,0,49.6V6.9c0-1.7,0.6-3.3,1.7-4.5
	L2,2.1C2.6,1.5,3.3,1,4.1,0.6C5,0.2,5.9,0,6.9,0z M73.1,65.3H116c1,0,2.1,0.2,3,0.7c0.9,0.4,1.7,1.1,2.4,1.9c0.5,0.6,0.9,1.3,1.2,2
	c0.3,0.7,0.4,1.5,0.4,2.3v42.7c0,0.9-0.2,1.8-0.6,2.7c-0.4,0.9-0.9,1.6-1.6,2.3c-0.6,0.6-1.4,1.1-2.2,1.4c-0.8,0.3-1.7,0.5-2.6,0.5
	h-43c-0.9,0-1.7-0.2-2.6-0.5c-0.8-0.3-1.6-0.8-2.2-1.4c-0.7-0.6-1.2-1.4-1.6-2.3c-0.4-0.9-0.6-1.8-0.6-2.7V72.2
	c0-0.8,0.1-1.7,0.4-2.4c0.3-0.8,0.7-1.5,1.2-2.1l0.3-0.3c0.6-0.6,1.3-1.1,2.1-1.4C71.1,65.5,72.1,65.3,73.1,65.3z M116,72.2H73.1
	l0,0v42.7c3.7,0,42.9,0,42.9,0C116,111.3,116,72.2,116,72.2L116,72.2z M6.9,65.3h42.9c2.1,0,4,0.9,5.3,2.6c0.5,0.6,0.9,1.3,1.2,2
	c0.3,0.7,0.4,1.5,0.4,2.3v42.7c0,0.9-0.2,1.8-0.6,2.7c-0.4,0.9-0.9,1.6-1.6,2.3c-1.3,1.2-3,1.9-4.8,1.9H6.9c-0.9,0-1.7-0.2-2.5-0.5
	c-0.8-0.3-1.6-0.8-2.2-1.4c-0.7-0.6-1.2-1.4-1.6-2.3c-0.4-0.8-0.6-1.7-0.6-2.7V72.2c0-0.8,0.2-1.7,0.4-2.4c0.3-0.8,0.7-1.5,1.3-2.1
	L2,67.3c0.6-0.6,1.3-1.1,2.1-1.4C5,65.5,5.9,65.3,6.9,65.3z M49.8,72.2H6.9l0,0v42.7c3.7,0,42.9,0,42.9,0
	C49.8,111.3,49.8,72.2,49.8,72.2L49.8,72.2z M73.1,0H116c1,0,2.1,0.2,3,0.7c0.9,0.4,1.7,1.1,2.4,1.9c0.5,0.6,0.9,1.3,1.2,2
	c0.3,0.7,0.4,1.5,0.4,2.3v42.7c0,0.9-0.2,1.8-0.6,2.7c-0.4,0.9-0.9,1.6-1.6,2.3c-0.7,0.6-1.4,1.1-2.3,1.4c-0.8,0.3-1.7,0.5-2.6,0.5
	H73.1c-0.9,0-1.7-0.2-2.5-0.5c-0.8-0.3-1.6-0.8-2.2-1.4c-0.7-0.6-1.2-1.4-1.6-2.3c-0.4-0.9-0.6-1.8-0.6-2.7V6.9
	c0-0.8,0.2-1.6,0.4-2.4c0.3-0.8,0.7-1.5,1.2-2.1l0.3-0.3c0.6-0.6,1.3-1.1,2.1-1.5C71.1,0.2,72.1,0,73.1,0z M116,6.9H73.1l0,0v42.7
	c3.7,0,42.9,0,42.9,0C116,46,116,6.9,116,6.9L116,6.9z M49.8,6.9H6.9l0,0v42.7c3.7,0,42.9,0,42.9,0C49.8,46,49.8,6.9,49.8,6.9
	L49.8,6.9z"/>
</svg>
