<?xml version="1.0" encoding="utf-8"?>
<!-- Generator: Adobe Illustrator 26.0.1, SVG Export Plug-In . SVG Version: 6.00 Build 0)  -->
<svg version="1.1" id="Layer_1" xmlns="http://www.w3.org/2000/svg" xmlns:xlink="http://www.w3.org/1999/xlink" x="0px" y="0px"
	 viewBox="0 0 122.9 119.8" style="enable-background:new 0 0 122.9 119.8;" xml:space="preserve">
<style type="text/css">
	.st0{fill:#F0F0F0;}
</style>
<path class="st0" d="M23.5,0h75.9c13,0,23.5,10.5,23.5,23.5v72.8c0,13-10.5,23.5-23.5,23.5H23.5c-6.2,0-12.2-2.5-16.6-6.9l-0.4-0.4
	C2.3,108.1,0,102.3,0,96.3V23.5C0,10.5,10.5,0,23.5,0z M41,49.3c-2.6-2.9-2.4-7.3,0.4-9.9c2.7-2.5,6.8-2.5,9.5,0L61.4,50L72,39.5
	c2.7-2.8,7.1-2.9,9.9-0.3c2.8,2.7,2.9,7.1,0.3,9.9c-0.1,0.1-0.2,0.2-0.3,0.3L71.3,59.9l10.5,10.5c2.6,2.9,2.4,7.3-0.5,9.9
	c-2.7,2.4-6.7,2.4-9.3,0L61.4,69.8L50.9,80.3c-2.7,2.7-7.2,2.7-9.9,0s-2.7-7.2,0-9.9l10.5-10.5L41,49.3z M99.4,12.5H23.5
	c-6.1,0-11,4.9-11,11v72.8c0,2.8,1.1,5.5,3,7.5l0.3,0.3c2.1,2.1,4.8,3.2,7.8,3.2h75.9c6.1,0,11-4.9,11-11V23.5
	C110.4,17.4,105.5,12.5,99.4,12.5L99.4,12.5z"/>
</svg>
