<?xml version="1.0" encoding="utf-8"?>
<!-- Generator: Adobe Illustrator 26.0.1, SVG Export Plug-In . SVG Version: 6.00 Build 0)  -->
<svg version="1.1" id="Layer_1" xmlns="http://www.w3.org/2000/svg" xmlns:xlink="http://www.w3.org/1999/xlink" x="0px" y="0px"
	 viewBox="0 0 700 700" style="enable-background:new 0 0 700 700;" xml:space="preserve">
<style type="text/css">
	.st0{display:none;}
	.st1{display:inline;}
</style>
<symbol  id="a" viewBox="-1.6 -1.6 3.2 3.1">
	<path d="M1.6,0v0.3h-2.2c0,0.2,0.1,0.4,0.2,0.5c0.1,0.1,0.3,0.2,0.6,0.2c0.2,0,0.4,0,0.6-0.1C1,0.8,1.2,0.7,1.5,0.6v0.7
		C1.2,1.4,1,1.5,0.8,1.5c-0.2,0-0.5,0.1-0.7,0.1c-0.5,0-1-0.1-1.3-0.4C-1.5,0.9-1.6,0.5-1.6,0c0-0.5,0.1-0.9,0.4-1.1
		c0.3-0.3,0.7-0.4,1.2-0.4c0.5,0,0.8,0.1,1.1,0.4S1.6-0.5,1.6,0L1.6,0z M0.6-0.3c0-0.2-0.1-0.3-0.2-0.4C0.4-0.9,0.2-0.9,0.1-0.9
		c-0.2,0-0.3,0.1-0.5,0.2c-0.1,0.1-0.2,0.2-0.2,0.4L0.6-0.3z"/>
</symbol>
<symbol  id="b" viewBox="-1.1 -1.5 2.2 3.1">
	<path d="M1.1-0.6C1-0.7,0.9-0.7,0.9-0.7c-0.1,0-0.2,0-0.2,0C0.4-0.8,0.2-0.7,0-0.5c-0.1,0.2-0.2,0.4-0.2,0.7v1.4h-1v-3h1V-1
		C0-1.2,0.1-1.3,0.3-1.4c0.2-0.1,0.4-0.1,0.6-0.1h0.1c0,0,0.1,0,0.2,0L1.1-0.6z"/>
</symbol>
<symbol  id="c" viewBox="-1.2 -1.9 2.4 3.8">
	<path d="M0.2-1.9v0.9h1v0.7h-1v1.3c0,0.1,0,0.2,0.1,0.3c0.1,0,0.2,0.1,0.3,0.1h0.5v0.7H0.3c-0.4,0-0.7-0.1-0.8-0.2
		s-0.2-0.4-0.2-0.8v-1.3h-0.5v-0.7h0.5v-0.9L0.2-1.9z"/>
</symbol>
<symbol  id="d" viewBox="-1.6 -1.6 3.3 3.1">
	<path d="M0-0.9c-0.2,0-0.4,0.1-0.5,0.2C-0.6-0.5-0.6-0.3-0.6,0c0,0.3,0.1,0.5,0.2,0.7C-0.4,0.8-0.2,0.9,0,0.9
		c0.2,0,0.4-0.1,0.5-0.2C0.6,0.5,0.7,0.3,0.7,0c0-0.3-0.1-0.5-0.2-0.6C0.4-0.8,0.2-0.9,0-0.9z M0-1.6c0.5,0,0.9,0.1,1.2,0.4
		C1.5-0.9,1.6-0.5,1.6,0c0,0.5-0.1,0.9-0.4,1.2C0.9,1.4,0.5,1.6,0,1.6c-0.5,0-0.9-0.1-1.2-0.4C-1.5,0.9-1.6,0.5-1.6,0
		c0-0.5,0.1-0.9,0.4-1.1C-0.9-1.4-0.5-1.6,0-1.6z"/>
</symbol>
<symbol  id="e" viewBox="-0.5 -2.1 1 4.2">
	<path d="M-0.5-0.9h1v3h-1V-0.9z M-0.5-2.1h1v0.8h-1V-2.1z"/>
</symbol>
<symbol  id="f" viewBox="-1.7 -2.1 3.4 4.2">
	<path d="M-1.7-2.1h1l0.8,2l0.7-2h1L0.4,1.2C0.3,1.5,0.2,1.7,0,1.9C-0.2,2-0.4,2.1-0.7,2.1h-0.5V1.4h0.3c0.2,0,0.3,0,0.4-0.1
		c0.1-0.1,0.1-0.1,0.2-0.3l0-0.1L-1.7-2.1z"/>
</symbol>
<symbol  id="g" viewBox="-1.6 -2.1 3.2 4.2">
	<path d="M0,1.4c0.2,0,0.4-0.1,0.5-0.2c0.1-0.2,0.2-0.4,0.2-0.7c0-0.3-0.1-0.5-0.2-0.6C0.3-0.3,0.2-0.3,0-0.3
		c-0.2,0-0.4,0.1-0.5,0.2C-0.6,0-0.6,0.3-0.6,0.5c0,0.3,0.1,0.5,0.2,0.7C-0.4,1.4-0.2,1.4,0,1.4z M-0.6-0.5c0.1-0.2,0.3-0.3,0.4-0.4
		C-0.1-1,0.1-1,0.3-1C0.7-1,1-0.9,1.2-0.6c0.2,0.3,0.4,0.7,0.4,1.1c0,0.5-0.1,0.9-0.4,1.1C1,2,0.7,2.1,0.3,2.1c-0.2,0-0.4,0-0.6-0.1
		c-0.2-0.1-0.3-0.2-0.4-0.4V2h-1v-4.2h1V-0.5z"/>
</symbol>
<symbol  id="h" viewBox="-1.6 -2.1 3.2 4.2">
	<path d="M0.6-0.5v-1.6h1V2h-1V1.6C0.5,1.8,0.4,1.9,0.2,2C0.1,2.1-0.1,2.1-0.3,2.1C-0.7,2.1-1,2-1.3,1.7C-1.5,1.4-1.6,1-1.6,0.5
		c0-0.5,0.1-0.8,0.3-1.1C-1-0.9-0.7-1-0.3-1C-0.1-1,0-1,0.2-0.9C0.4-0.8,0.5-0.7,0.6-0.5L0.6-0.5z M0,1.4c0.2,0,0.4-0.1,0.5-0.2
		c0.1-0.2,0.2-0.4,0.2-0.7c0-0.3-0.1-0.5-0.2-0.6C0.4-0.3,0.2-0.3,0-0.3c-0.2,0-0.4,0.1-0.5,0.2C-0.6,0-0.6,0.3-0.6,0.5
		c0,0.3,0.1,0.5,0.2,0.7C-0.3,1.4-0.2,1.4,0,1.4z"/>
</symbol>
<symbol  id="i" viewBox="-1.5 -1.6 3 3.1">
	<path d="M0,0.1c-0.2,0-0.4,0-0.5,0.1c-0.1,0.1-0.1,0.2-0.1,0.3c0,0.1,0,0.2,0.1,0.3c0.1,0.1,0.2,0.1,0.3,0.1c0.2,0,0.3-0.1,0.5-0.2
		s0.2-0.3,0.2-0.5V0.1H0z M1.5-0.2v1.7h-1V1.1C0.4,1.2,0.3,1.4,0.1,1.4C0,1.5-0.2,1.6-0.5,1.6c-0.3,0-0.6-0.1-0.8-0.3
		c-0.2-0.2-0.3-0.4-0.3-0.7c0-0.4,0.1-0.6,0.4-0.8C-0.9-0.3-0.5-0.4,0-0.4h0.6v-0.1c0-0.2-0.1-0.3-0.2-0.3C0.2-0.9,0.1-0.9-0.2-0.9
		c-0.2,0-0.4,0-0.6,0.1c-0.2,0-0.3,0.1-0.5,0.2v-0.7c0.2-0.1,0.4-0.1,0.6-0.1c0.2,0,0.4,0,0.6,0c0.5,0,0.9,0.1,1.2,0.3
		C1.4-1,1.5-0.7,1.5-0.2L1.5-0.2z"/>
</symbol>
<symbol  id="j" viewBox="-1.2 -2.1 2.3 4.2">
	<path d="M1.2-2.1v0.6H0.6c-0.1,0-0.2,0-0.3,0.1C0.3-1.3,0.3-1.2,0.3-1.1v0.2h0.8v0.7H0.3v2.3h-1v-2.3h-0.5v-0.7h0.5v-0.2
		c0-0.3,0.1-0.6,0.3-0.7C-0.2-2,0.1-2.1,0.4-2.1L1.2-2.1z"/>
</symbol>
<symbol  id="k" viewBox="-1.5 -1.5 3 3.1">
	<path d="M1.5-0.3v1.8h-1V0.1c0-0.3,0-0.4,0-0.5c0-0.1,0-0.2-0.1-0.2c0-0.1-0.1-0.1-0.2-0.1c-0.1,0-0.1-0.1-0.2-0.1
		c-0.2,0-0.4,0.1-0.5,0.2c-0.1,0.2-0.2,0.4-0.2,0.6v1.5h-1v-3h1V-1c0.1-0.2,0.3-0.3,0.5-0.4c0.2-0.1,0.3-0.1,0.5-0.1
		c0.3,0,0.6,0.1,0.8,0.3C1.4-1,1.5-0.7,1.5-0.3L1.5-0.3z"/>
</symbol>
<symbol  id="l" viewBox="-1.3 -1.6 2.6 3.1">
	<path d="M1.3-1.4v0.8C1.2-0.7,1.1-0.8,0.9-0.8c-0.1,0-0.3-0.1-0.4-0.1C0.2-0.9,0-0.8-0.1-0.6C-0.3-0.5-0.3-0.3-0.3,0
		c0,0.3,0.1,0.5,0.2,0.7C0,0.8,0.2,0.9,0.5,0.9c0.1,0,0.3,0,0.4-0.1c0.1,0,0.3-0.1,0.4-0.2v0.8C1.2,1.5,1,1.5,0.9,1.5
		c-0.2,0-0.3,0-0.5,0c-0.5,0-1-0.1-1.3-0.4C-1.2,0.9-1.3,0.5-1.3,0c0-0.5,0.1-0.9,0.5-1.1c0.3-0.3,0.7-0.4,1.3-0.4
		c0.2,0,0.3,0,0.5,0C1-1.5,1.2-1.5,1.3-1.4L1.3-1.4z"/>
</symbol>
<symbol  id="m" viewBox="-0.8 -2.7 1.6 5.3">
	<path d="M-0.2-1.5h1v2.9c0,0.4-0.1,0.7-0.3,0.9C0.3,2.6,0,2.7-0.3,2.7h-0.5V2h0.2c0.2,0,0.3,0,0.4-0.1c0.1-0.1,0.1-0.2,0.1-0.5
		L-0.2-1.5z M-0.2-2.7h1v0.8h-1V-2.7z"/>
</symbol>
<symbol  id="n" viewBox="-1.6 -2 3.3 4">
	<path d="M-1.6-2h1.7C0.6-2,1-1.9,1.2-1.6c0.3,0.2,0.4,0.5,0.4,1c0,0.4-0.1,0.7-0.4,1C1,0.5,0.6,0.6,0.1,0.6h-0.7V2h-1L-1.6-2z
		 M-0.6-1.2v1.1H0c0.2,0,0.3,0,0.5-0.1c0.1-0.1,0.2-0.2,0.2-0.4c0-0.2-0.1-0.3-0.2-0.4C0.3-1.2,0.1-1.2,0-1.2L-0.6-1.2z"/>
</symbol>
<symbol  id="o" viewBox="-1.5 -1.5 3 3.1">
	<path d="M-1.5,0.3v-1.8h1v0.3v0.6v0.5c0,0.2,0,0.4,0,0.5c0,0.1,0,0.2,0.1,0.2c0,0.1,0.1,0.1,0.2,0.2c0.1,0,0.1,0,0.2,0
		c0.2,0,0.4-0.1,0.5-0.2c0.1-0.2,0.2-0.4,0.2-0.6v-1.5h1v3h-1V1C0.4,1.2,0.3,1.3,0.1,1.4c-0.2,0.1-0.3,0.1-0.5,0.1
		c-0.3,0-0.6-0.1-0.8-0.3C-1.4,1-1.5,0.7-1.5,0.3L-1.5,0.3z"/>
</symbol>
<symbol  id="p" viewBox="-1.8 -2 3.6 4">
	<path d="M-1.8-2h1.2l1.4,2.7V-2h1v4H0.6l-1.4-2.7V2h-1L-1.8-2z"/>
</symbol>
<symbol  id="q" viewBox="-1.5 -2.1 3 4.2">
	<path d="M1.5,0.2v1.8h-1V0.7c0-0.3,0-0.4,0-0.5c0-0.1,0-0.2-0.1-0.2c0-0.1-0.1-0.1-0.2-0.1c-0.1,0-0.1-0.1-0.2-0.1
		c-0.2,0-0.4,0.1-0.5,0.2c-0.1,0.2-0.2,0.4-0.2,0.6v1.5h-1v-4.2h1v1.6c0.1-0.2,0.3-0.3,0.5-0.4C0.1-0.9,0.3-1,0.4-1
		C0.8-1,1-0.9,1.2-0.7C1.4-0.4,1.5-0.1,1.5,0.2L1.5,0.2z"/>
</symbol>
<symbol  id="r" viewBox="-2.4 -1.5 4.8 3.1">
	<path d="M0.4-1c0.1-0.2,0.3-0.3,0.4-0.4C1-1.5,1.1-1.5,1.4-1.5c0.3,0,0.6,0.1,0.8,0.3C2.3-1,2.4-0.7,2.4-0.3v1.8h-1V0
		c0,0,0,0,0-0.1v-0.1c0-0.2,0-0.4-0.1-0.5S1.2-0.8,1.1-0.8c-0.2,0-0.3,0.1-0.4,0.2C0.5-0.4,0.5-0.2,0.5,0.1v1.5h-1V0
		c0-0.3,0-0.5-0.1-0.6c-0.1-0.1-0.2-0.1-0.3-0.1c-0.2,0-0.3,0.1-0.4,0.2c-0.1,0.1-0.1,0.4-0.1,0.6v1.5h-1v-3h1V-1
		C-1.3-1.2-1.2-1.3-1-1.4c0.2-0.1,0.3-0.1,0.5-0.1c0.2,0,0.4,0.1,0.5,0.2C0.2-1.3,0.3-1.1,0.4-1L0.4-1z"/>
</symbol>
<symbol  id="s" viewBox="-1.7 -2.1 3.4 4.1">
	<path d="M1.7,1.8C1.5,1.9,1.3,1.9,1.1,2C0.9,2,0.7,2.1,0.5,2.1c-0.7,0-1.2-0.2-1.6-0.5C-1.5,1.1-1.7,0.6-1.7,0
		c0-0.6,0.2-1.1,0.6-1.5c0.4-0.4,0.9-0.6,1.6-0.6c0.2,0,0.4,0,0.6,0.1c0.2,0.1,0.4,0.1,0.6,0.2v0.8C1.5-1.1,1.3-1.2,1.1-1.2
		C1-1.3,0.8-1.3,0.6-1.3C0.2-1.3-0.1-1.2-0.3-1c-0.2,0.2-0.3,0.6-0.3,1c0,0.4,0.1,0.7,0.3,1c0.2,0.2,0.5,0.3,0.9,0.3
		c0.2,0,0.4,0,0.6-0.1c0.2-0.1,0.4-0.2,0.6-0.3V1.8z"/>
</symbol>
<g class="st0">
	
		<use xlink:href="#s"  width="3.4" height="4.1" x="-1.7" y="-2.1" transform="matrix(1 0 0 1 71.9609 574.4141)" style="display:inline;overflow:visible;"/>
	
		<use xlink:href="#b"  width="2.2" height="3.1" x="-1.1" y="-1.5" transform="matrix(1 0 0 1 75.582 574.875)" style="display:inline;overflow:visible;"/>
	
		<use xlink:href="#a"  width="3.2" height="3.1" x="-1.6" y="-1.6" transform="matrix(1 0 0 1 78.5469 574.9141)" style="display:inline;overflow:visible;"/>
	
		<use xlink:href="#i"  width="3" height="3.1" x="-1.5" y="-1.6" transform="matrix(1 0 0 1 82.1681 574.914)" style="display:inline;overflow:visible;"/>
	
		<use xlink:href="#c"  width="2.4" height="3.8" x="-1.2" y="-1.9" transform="matrix(1 0 0 1 85.3906 574.4843)" style="display:inline;overflow:visible;"/>
	<g class="st1">
		<defs>
			<rect id="SVGID_1_" x="86.7" y="576.4" width="700" height="700"/>
		</defs>
		<clipPath id="SVGID_00000057858109592427373170000012108410428409732791_">
			<use xlink:href="#SVGID_1_"  style="overflow:visible;"/>
		</clipPath>
		<g style="clip-path:url(#SVGID_00000057858109592427373170000012108410428409732791_);">
			
				<use xlink:href="#a"  width="3.2" height="3.1" x="-1.6" y="-1.6" transform="matrix(1 0 0 1 88.5586 574.9141)" style="overflow:visible;"/>
		</g>
	</g>
	
		<use xlink:href="#h"  width="3.2" height="4.2" x="-1.6" y="-2.1" transform="matrix(1 0 0 1 92.2851 574.3671)" style="display:inline;overflow:visible;"/>
	
		<use xlink:href="#g"  width="3.2" height="4.2" x="-1.6" y="-2.1" transform="matrix(1 0 0 1 98.3125 574.3672)" style="display:inline;overflow:visible;"/>
	
		<use xlink:href="#f"  width="3.4" height="4.2" x="-1.7" y="-2.1" transform="matrix(1 0 0 1 101.9336 575.5078)" style="display:inline;overflow:visible;"/>
	
		<use xlink:href="#e"  width="1" height="4.2" x="-0.5" y="-2.1" transform="matrix(1 0 0 1 106.5742 574.3281)" style="display:inline;overflow:visible;"/>
	<g class="st1">
		<defs>
			<rect id="SVGID_00000140704306942360041140000010686050557091900829_" x="107.5" y="576.4" width="700" height="700"/>
		</defs>
		<clipPath id="SVGID_00000158713198257170684890000013665726691556300686_">
			<use xlink:href="#SVGID_00000140704306942360041140000010686050557091900829_"  style="overflow:visible;"/>
		</clipPath>
		<g style="clip-path:url(#SVGID_00000158713198257170684890000013665726691556300686_);">
			
				<use xlink:href="#g"  width="3.2" height="4.2" x="-1.6" y="-2.1" transform="matrix(1 0 0 1 109.5703 574.3672)" style="overflow:visible;"/>
		</g>
	</g>
	<g class="st1">
		<defs>
			<rect id="SVGID_00000070079371564887095340000008435344985456998327_" x="111.4" y="576.4" width="700" height="700"/>
		</defs>
		<clipPath id="SVGID_00000065768485699328540190000007382031224948579201_">
			<use xlink:href="#SVGID_00000070079371564887095340000008435344985456998327_"  style="overflow:visible;"/>
		</clipPath>
		<g style="clip-path:url(#SVGID_00000065768485699328540190000007382031224948579201_);">
			
				<use xlink:href="#b"  width="2.2" height="3.1" x="-1.1" y="-1.5" transform="matrix(1 0 0 1 112.9961 574.875)" style="overflow:visible;"/>
		</g>
	</g>
	<g class="st1">
		<defs>
			<rect id="SVGID_00000097490437851940447080000005341135381790589874_" x="114.1" y="576.4" width="700" height="700"/>
		</defs>
		<clipPath id="SVGID_00000036253640071450806290000011890353179282004370_">
			<use xlink:href="#SVGID_00000097490437851940447080000005341135381790589874_"  style="overflow:visible;"/>
		</clipPath>
		<g style="clip-path:url(#SVGID_00000036253640071450806290000011890353179282004370_);">
			
				<use xlink:href="#i"  width="3" height="3.1" x="-1.5" y="-1.6" transform="matrix(1 0 0 1 115.8712 574.914)" style="overflow:visible;"/>
		</g>
	</g>
	
		<use xlink:href="#k"  width="3" height="3.1" x="-1.5" y="-1.5" transform="matrix(1 0 0 1 119.7735 574.8751)" style="display:inline;overflow:visible;"/>
	<g class="st1">
		<defs>
			<rect id="SVGID_00000013901603447733315600000013555090112105573518_" x="121.7" y="576.4" width="700" height="700"/>
		</defs>
		<clipPath id="SVGID_00000100346736533233002560000004125172512390679943_">
			<use xlink:href="#SVGID_00000013901603447733315600000013555090112105573518_"  style="overflow:visible;"/>
		</clipPath>
		<g style="clip-path:url(#SVGID_00000100346736533233002560000004125172512390679943_);">
			
				<use xlink:href="#h"  width="3.2" height="4.2" x="-1.6" y="-2.1" transform="matrix(1 0 0 1 123.5547 574.3671)" style="overflow:visible;"/>
		</g>
	</g>
	<g class="st1">
		<defs>
			<rect id="SVGID_00000062890322757497635860000007500078119284802220_" x="125.6" y="576.4" width="700" height="700"/>
		</defs>
		<clipPath id="SVGID_00000005986600118426492920000017465073513255952546_">
			<use xlink:href="#SVGID_00000062890322757497635860000007500078119284802220_"  style="overflow:visible;"/>
		</clipPath>
		<g style="clip-path:url(#SVGID_00000005986600118426492920000017465073513255952546_);">
			
				<use xlink:href="#e"  width="1" height="4.2" x="-0.5" y="-2.1" transform="matrix(1 0 0 1 126.5586 574.3281)" style="overflow:visible;"/>
		</g>
	</g>
	
		<use xlink:href="#j"  width="2.3" height="4.2" x="-1.2" y="-2.1" transform="matrix(1 0 0 1 128.7578 574.3282)" style="display:inline;overflow:visible;"/>
	<g class="st1">
		<defs>
			<rect id="SVGID_00000106845428252208454420000010693040887863821743_" x="129.9" y="576.4" width="700" height="700"/>
		</defs>
		<clipPath id="SVGID_00000145740309288221286570000015787929517704860815_">
			<use xlink:href="#SVGID_00000106845428252208454420000010693040887863821743_"  style="overflow:visible;"/>
		</clipPath>
		<g style="clip-path:url(#SVGID_00000145740309288221286570000015787929517704860815_);">
			
				<use xlink:href="#f"  width="3.4" height="4.2" x="-1.7" y="-2.1" transform="matrix(1 0 0 1 131.6406 575.5078)" style="overflow:visible;"/>
		</g>
	</g>
	<g class="st1">
		<defs>
			<rect id="SVGID_00000063624103186635853630000003576061958436568499_" x="70" y="581.9" width="700" height="700"/>
		</defs>
		<clipPath id="SVGID_00000057136016368464395340000007035529194966411916_">
			<use xlink:href="#SVGID_00000063624103186635853630000003576061958436568499_"  style="overflow:visible;"/>
		</clipPath>
		<g style="clip-path:url(#SVGID_00000057136016368464395340000007035529194966411916_);">
			
				<use xlink:href="#j"  width="2.3" height="4.2" x="-1.2" y="-2.1" transform="matrix(1 0 0 1 71.2657 579.7969)" style="overflow:visible;"/>
		</g>
	</g>
	<g class="st1">
		<defs>
			<rect id="SVGID_00000072987443601195749800000012676130167700949162_" x="72.4" y="581.9" width="700" height="700"/>
		</defs>
		<clipPath id="SVGID_00000172420874180016614290000004150208010354474135_">
			<use xlink:href="#SVGID_00000072987443601195749800000012676130167700949162_"  style="overflow:visible;"/>
		</clipPath>
		<g style="clip-path:url(#SVGID_00000172420874180016614290000004150208010354474135_);">
			
				<use xlink:href="#b"  width="2.2" height="3.1" x="-1.1" y="-1.5" transform="matrix(1 0 0 1 73.9492 580.3438)" style="overflow:visible;"/>
		</g>
	</g>
	
		<use xlink:href="#d"  width="3.3" height="3.1" x="-1.6" y="-1.6" transform="matrix(1 0 0 1 76.9531 580.3828)" style="display:inline;overflow:visible;"/>
	
		<use xlink:href="#r"  width="4.8" height="3.1" x="-2.4" y="-1.5" transform="matrix(1 0 0 1 81.6914 580.3438)" style="display:inline;overflow:visible;"/>
	<g class="st1">
		<defs>
			<rect id="SVGID_00000068658154219730495120000001007156377325230775_" x="86.4" y="581.9" width="700" height="700"/>
		</defs>
		<clipPath id="SVGID_00000029005153152374853530000018003296165269059734_">
			<use xlink:href="#SVGID_00000068658154219730495120000001007156377325230775_"  style="overflow:visible;"/>
		</clipPath>
		<g style="clip-path:url(#SVGID_00000029005153152374853530000018003296165269059734_);">
			
				<use xlink:href="#c"  width="2.4" height="3.8" x="-1.2" y="-1.9" transform="matrix(1 0 0 1 87.7188 579.9531)" style="overflow:visible;"/>
		</g>
	</g>
	
		<use xlink:href="#q"  width="3" height="4.2" x="-1.5" y="-2.1" transform="matrix(1 0 0 1 91.0118 579.797)" style="display:inline;overflow:visible;"/>
	<g class="st1">
		<defs>
			<rect id="SVGID_00000154384611347782223340000016460172046525250969_" x="92.9" y="581.9" width="700" height="700"/>
		</defs>
		<clipPath id="SVGID_00000013895835836835382830000009528299916859607969_">
			<use xlink:href="#SVGID_00000154384611347782223340000016460172046525250969_"  style="overflow:visible;"/>
		</clipPath>
		<g style="clip-path:url(#SVGID_00000013895835836835382830000009528299916859607969_);">
			
				<use xlink:href="#a"  width="3.2" height="3.1" x="-1.6" y="-1.6" transform="matrix(1 0 0 1 94.7774 580.3828)" style="overflow:visible;"/>
		</g>
	</g>
	
		<use xlink:href="#p"  width="3.6" height="4" x="-1.8" y="-2" transform="matrix(1 0 0 1 100.8437 579.8828)" style="display:inline;overflow:visible;"/>
	<g class="st1">
		<defs>
			<rect id="SVGID_00000126285432740938127120000012985800469781725361_" x="103.1" y="581.9" width="700" height="700"/>
		</defs>
		<clipPath id="SVGID_00000075130787169738992480000007121831996284465043_">
			<use xlink:href="#SVGID_00000126285432740938127120000012985800469781725361_"  style="overflow:visible;"/>
		</clipPath>
		<g style="clip-path:url(#SVGID_00000075130787169738992480000007121831996284465043_);">
			
				<use xlink:href="#d"  width="3.3" height="3.1" x="-1.6" y="-1.6" transform="matrix(1 0 0 1 105.0078 580.3828)" style="overflow:visible;"/>
		</g>
	</g>
	
		<use xlink:href="#o"  width="3" height="3.1" x="-1.5" y="-1.5" transform="matrix(1 0 0 1 108.8203 580.4218)" style="display:inline;overflow:visible;"/>
	<g class="st1">
		<defs>
			<rect id="SVGID_00000106832895928505296560000012274423608418623892_" x="110.8" y="581.9" width="700" height="700"/>
		</defs>
		<clipPath id="SVGID_00000181050042199905664840000013685083517061988790_">
			<use xlink:href="#SVGID_00000106832895928505296560000012274423608418623892_"  style="overflow:visible;"/>
		</clipPath>
		<g style="clip-path:url(#SVGID_00000181050042199905664840000013685083517061988790_);">
			
				<use xlink:href="#k"  width="3" height="3.1" x="-1.5" y="-1.5" transform="matrix(1 0 0 1 112.7461 580.3438)" style="overflow:visible;"/>
		</g>
	</g>
	
		<use xlink:href="#n"  width="3.3" height="4" x="-1.6" y="-2" transform="matrix(1 0 0 1 118.7227 579.8828)" style="display:inline;overflow:visible;"/>
	<g class="st1">
		<defs>
			<rect id="SVGID_00000115487321822626847390000007638555333932545927_" x="120.6" y="581.9" width="700" height="700"/>
		</defs>
		<clipPath id="SVGID_00000126307903933522788230000013933700714948040345_">
			<use xlink:href="#SVGID_00000115487321822626847390000007638555333932545927_"  style="overflow:visible;"/>
		</clipPath>
		<g style="clip-path:url(#SVGID_00000126307903933522788230000013933700714948040345_);">
			
				<use xlink:href="#b"  width="2.2" height="3.1" x="-1.1" y="-1.5" transform="matrix(1 0 0 1 122.1602 580.3438)" style="overflow:visible;"/>
		</g>
	</g>
	<g class="st1">
		<defs>
			<rect id="SVGID_00000079470981911920855460000016355492060745175174_" x="123.3" y="581.9" width="700" height="700"/>
		</defs>
		<clipPath id="SVGID_00000124120276080701520130000014161663967352603008_">
			<use xlink:href="#SVGID_00000079470981911920855460000016355492060745175174_"  style="overflow:visible;"/>
		</clipPath>
		<g style="clip-path:url(#SVGID_00000124120276080701520130000014161663967352603008_);">
			
				<use xlink:href="#d"  width="3.3" height="3.1" x="-1.6" y="-1.6" transform="matrix(1 0 0 1 125.1602 580.3828)" style="overflow:visible;"/>
		</g>
	</g>
	
		<use xlink:href="#m"  width="1.6" height="5.3" x="-0.8" y="-2.7" transform="matrix(1 0 0 1 127.6601 580.3906)" style="display:inline;overflow:visible;"/>
	<g class="st1">
		<defs>
			<rect id="SVGID_00000172409563690828084570000016687794175322910651_" x="128.9" y="581.9" width="700" height="700"/>
		</defs>
		<clipPath id="SVGID_00000022543908404356458040000018303906698410594982_">
			<use xlink:href="#SVGID_00000172409563690828084570000016687794175322910651_"  style="overflow:visible;"/>
		</clipPath>
		<g style="clip-path:url(#SVGID_00000022543908404356458040000018303906698410594982_);">
			
				<use xlink:href="#a"  width="3.2" height="3.1" x="-1.6" y="-1.6" transform="matrix(1 0 0 1 130.7539 580.3828)" style="overflow:visible;"/>
		</g>
	</g>
	
		<use xlink:href="#l"  width="2.6" height="3.1" x="-1.3" y="-1.6" transform="matrix(1 0 0 1 134.1797 580.3828)" style="display:inline;overflow:visible;"/>
	<g class="st1">
		<defs>
			<rect id="SVGID_00000062154420674316867050000016800865554037644219_" x="135.9" y="581.9" width="700" height="700"/>
		</defs>
		<clipPath id="SVGID_00000046317449506103070130000014195477327321845690_">
			<use xlink:href="#SVGID_00000062154420674316867050000016800865554037644219_"  style="overflow:visible;"/>
		</clipPath>
		<g style="clip-path:url(#SVGID_00000046317449506103070130000014195477327321845690_);">
			
				<use xlink:href="#c"  width="2.4" height="3.8" x="-1.2" y="-1.9" transform="matrix(1 0 0 1 137.1484 579.9531)" style="overflow:visible;"/>
		</g>
	</g>
</g>
<path d="M448.1,105.2h153.6v168.5H448.1V105.2z"/>
<path d="M194.1,634.1l0.4,24.9h310.8l-0.4-24.9H194.1z"/>
<path d="M287.3,533.5l-23.6,89.6h172.7l-23.6-89.6H287.3z"/>
<path d="M633,41.1H67c-9.9,0-19.1,3.8-26.1,10.8C33.8,59,30,68.3,30,78.1l0,407.6c0,9.5,3.7,18.7,10.5,25.7l0.4,0.4
	c7,7,16.3,10.9,26.1,10.9h566c9.8,0,19.1-3.9,26.2-10.9c6.9-6.9,10.8-16.2,10.8-26.1V78.1c0-9.9-3.9-19.2-10.9-26.2
	C652.2,44.9,642.9,41.1,633,41.1L633,41.1z M212.7,110.7c-2.2-2.1-2.2-5.5-0.1-7.7c2.1-2.2,5.5-2.2,7.7-0.1l26,25.2
	c1.1,1,1.7,2.4,1.7,3.9c0,1.5-0.6,2.9-1.7,3.9l-26,25.2c-1.1,1-2.4,1.5-3.8,1.5c-1.4,0-2.8-0.6-3.9-1.7c-2.1-2.2-2-5.6,0.1-7.7
	l22-21.3L212.7,110.7z M167.1,143.4h30.3c3,0,5.4,2.4,5.4,5.4c0,3-2.4,5.4-5.4,5.4h-30.3c-3,0-5.4-2.4-5.4-5.4
	C161.7,145.8,164.1,143.4,167.1,143.4z M116,128.1l26-25.2c2.2-2.1,5.6-2,7.7,0.1c2.1,2.2,2,5.6-0.1,7.7l-22,21.3l22,21.3
	c2.2,2.1,2.2,5.5,0.1,7.7c-1.1,1.1-2.5,1.7-3.9,1.7c-1.4,0-2.7-0.5-3.8-1.5l-26-25.2c-1.1-1-1.7-2.4-1.7-3.9S115,129.2,116,128.1
	L116,128.1z M294.7,373.4H115.3c-3,0-5.4-2.4-5.4-5.4c0-3,2.4-5.4,5.4-5.4h179.4c3,0,5.4,2.4,5.4,5.4
	C300.1,371,297.7,373.4,294.7,373.4z M294.7,312.3H115.3c-3,0-5.4-2.4-5.4-5.4s2.4-5.4,5.4-5.4h179.4c3,0,5.4,2.4,5.4,5.4
	S297.7,312.3,294.7,312.3z M294.7,262.4H115.3c-3,0-5.4-2.4-5.4-5.4s2.4-5.4,5.4-5.4h179.4c3,0,5.4,2.4,5.4,5.4
	C300.1,260,297.7,262.4,294.7,262.4z M360.9,373.4h-43.2c-3,0-5.4-2.4-5.4-5.4c0-3,2.4-5.4,5.4-5.4h43.2c3,0,5.4,2.4,5.4,5.4
	C366.3,371,363.9,373.4,360.9,373.4z M360.9,312.3h-43.2c-3,0-5.4-2.4-5.4-5.4s2.4-5.4,5.4-5.4h43.2c3,0,5.4,2.4,5.4,5.4
	S363.9,312.3,360.9,312.3z M360.9,262.4h-43.2c-3,0-5.4-2.4-5.4-5.4s2.4-5.4,5.4-5.4h43.2c3,0,5.4,2.4,5.4,5.4
	C366.3,260,363.9,262.4,360.9,262.4z M400.1,207.5H115.3c-3,0-5.4-2.4-5.4-5.4c0-3,2.4-5.4,5.4-5.4h284.7c3,0,5.4,2.4,5.4,5.4
	C405.5,205,403.1,207.5,400.1,207.5z M464.7,410.9c-1.1,1.1-2.5,1.6-3.9,1.6c-1.4,0-2.7-0.5-3.8-1.5l-26-25.3
	c-1.1-1-1.6-2.4-1.6-3.9c0-1.5,0.6-2.9,1.7-3.9l26-25.2c2.2-2.1,5.6-2,7.7,0.1c2.1,2.2,2,5.6-0.1,7.7l-22,21.3l22,21.4
	C466.8,405.4,466.8,408.8,464.7,410.9L464.7,410.9z M512.4,404.1h-30.2c-3,0-5.4-2.4-5.4-5.4c0-3,2.4-5.4,5.4-5.4h30.2
	c3,0,5.4,2.4,5.4,5.4C517.9,401.7,515.4,404.1,512.4,404.1z M561.4,385.8l-26.1,25.3c-1.1,1-2.4,1.5-3.8,1.5c-1.4,0-2.8-0.6-3.9-1.7
	c-2.1-2.2-2-5.6,0.1-7.7l22.1-21.4l-22.1-21.3c-2.2-2.1-2.2-5.5-0.1-7.7c2.1-2.2,5.5-2.2,7.7-0.1l26.1,25.2c1.1,1,1.7,2.4,1.7,3.9
	C563,383.3,562.4,384.8,561.4,385.8L561.4,385.8z M612.5,279.1c0,3-2.4,5.4-5.4,5.4H442.6c-3,0-5.4-2.4-5.4-5.4V99.7
	c0-3,2.4-5.4,5.4-5.4h164.4c3,0,5.4,2.4,5.4,5.4V279.1z"/>
</svg>
