<?xml version="1.0" encoding="utf-8"?>
<!-- Generator: Adobe Illustrator 26.0.1, SVG Export Plug-In . SVG Version: 6.00 Build 0)  -->
<svg version="1.1" id="Layer_1" xmlns="http://www.w3.org/2000/svg" xmlns:xlink="http://www.w3.org/1999/xlink" x="0px" y="0px"
	 viewBox="0 0 700 700" style="enable-background:new 0 0 700 700;" xml:space="preserve">
<style type="text/css">
	.st0{display:none;}
	.st1{display:inline;}
</style>
<symbol  id="a" viewBox="-12.1 -12.6 24.2 25.1">
	<path d="M0.4,1.2c-1.6,0-2.8,0.3-3.6,0.8C-4,2.5-4.4,3.3-4.4,4.4c0,1,0.3,1.7,1,2.3c0.6,0.5,1.5,0.8,2.7,0.8c1.4,0,2.6-0.5,3.6-1.5
		c1-1,1.5-2.3,1.5-3.9V1.2L0.4,1.2z M12.1-1.7v13.7H4.4V8.4c-1,1.4-2.2,2.5-3.5,3.2c-1.3,0.7-2.8,1-4.7,1c-2.5,0-4.5-0.7-6-2.2
		c-1.5-1.4-2.3-3.3-2.3-5.6c0-2.8,1-4.9,2.9-6.2c1.9-1.3,5-2,9.1-2h4.5V-4c0-1.2-0.5-2.1-1.4-2.7C2-7.2,0.5-7.5-1.5-7.5
		c-1.6,0-3.2,0.2-4.6,0.5C-7.5-6.7-8.8-6.2-10-5.5v-5.8c1.6-0.4,3.3-0.7,4.9-0.9c1.7-0.2,3.3-0.3,5-0.3c4.3,0,7.4,0.9,9.3,2.6
		C11.1-8.3,12.1-5.5,12.1-1.7L12.1-1.7z"/>
</symbol>
<symbol  id="b" viewBox="-12.8 -12.6 25.7 25.1">
	<path d="M12.8-0.1v2.2H-5c0.2,1.8,0.8,3.1,1.9,4C-2,7-0.4,7.5,1.6,7.5c1.6,0,3.3-0.2,4.9-0.7c1.7-0.5,3.4-1.2,5.2-2.2v5.9
		c-1.8,0.7-3.6,1.2-5.4,1.5c-1.8,0.4-3.6,0.5-5.4,0.5c-4.3,0-7.7-1.1-10.1-3.3C-11.6,7.1-12.8,4-12.8,0c0-3.9,1.2-7,3.5-9.2
		c2.4-2.2,5.6-3.4,9.7-3.4c3.8,0,6.8,1.1,9,3.4C11.7-6.9,12.8-3.9,12.8-0.1L12.8-0.1z M5-2.6c0-1.5-0.4-2.6-1.3-3.5
		C2.9-7,1.8-7.5,0.4-7.5c-1.5,0-2.7,0.4-3.6,1.2c-0.9,0.8-1.5,2-1.7,3.6H5z"/>
</symbol>
<symbol  id="c" viewBox="-3.8 -16.6 7.7 33.2">
	<path d="M-3.8-7.3h7.7v23.9h-7.7L-3.8-7.3z M-3.8-16.6h7.7v6.2h-7.7L-3.8-16.6z"/>
</symbol>
<symbol  id="d" viewBox="-9.7 -15.4 19.3 30.7">
	<path d="M1.8-15.4v6.8h7.9v5.5H1.8V7c0,1.1,0.2,1.9,0.7,2.3c0.4,0.4,1.3,0.6,2.6,0.6H9v5.5H2.4c-3,0-5.2-0.6-6.4-1.9
		c-1.3-1.3-1.9-3.4-1.9-6.4V-3.1h-3.8v-5.5h3.8v-6.8L1.8-15.4z"/>
</symbol>
<symbol  id="e" viewBox="-8.9 -12.3 17.8 24.5">
	<path d="M8.9-5.2c-0.7-0.3-1.4-0.5-2-0.7C6.2-6,5.6-6.1,4.9-6.1c-2,0-3.5,0.6-4.5,1.9c-1.1,1.3-1.6,3.1-1.6,5.4v11h-7.7v-23.9h7.7
		v3.9c1-1.6,2.1-2.7,3.4-3.4c1.3-0.7,2.8-1.1,4.6-1.1c0.2,0,0.5,0,0.8,0c0.3,0,0.7,0.1,1.3,0.1L8.9-5.2z"/>
</symbol>
<symbol  id="f" viewBox="-13.6 -16.5 27.1 33.1">
	<path d="M13.6,14.2c-1.5,0.8-3.1,1.4-4.7,1.8c-1.6,0.4-3.3,0.6-5.1,0.6c-5.3,0-9.5-1.5-12.6-4.5c-3.1-3-4.7-7-4.7-12.1
		s1.6-9.1,4.7-12.1c3.1-3,7.3-4.5,12.6-4.5c1.8,0,3.5,0.2,5.1,0.6c1.6,0.4,3.2,1,4.7,1.8v6.6c-1.5-1-3-1.8-4.5-2.3
		c-1.5-0.5-3-0.7-4.7-0.7c-2.9,0-5.2,0.9-6.9,2.8C-4.2-5.9-5.1-3.3-5.1,0c0,3.3,0.8,5.9,2.5,7.8c1.7,1.9,4,2.8,6.9,2.8
		c1.6,0,3.2-0.2,4.7-0.7c1.5-0.5,3-1.3,4.5-2.3V14.2z"/>
</symbol>
<symbol  id="g" viewBox="-12.6 -16.5 25.2 33.1">
	<path d="M10.5-15v6.8C8.7-9,7-9.6,5.4-10c-1.7-0.4-3.2-0.6-4.7-0.6c-2,0-3.4,0.3-4.4,0.8c-0.9,0.5-1.4,1.4-1.4,2.5
		c0,0.9,0.3,1.5,1,2C-3.5-4.8-2.4-4.4-0.7-4l3.5,0.7c3.5,0.7,6.1,1.8,7.6,3.2c1.5,1.4,2.2,3.5,2.2,6.2c0,3.5-1,6.1-3.1,7.9
		c-2.1,1.7-5.3,2.6-9.6,2.6c-2,0-4.1-0.2-6.1-0.6c-2-0.4-4.1-1-6.1-1.7V7.3c2,1.1,4,1.9,5.9,2.5c1.9,0.5,3.7,0.8,5.5,0.8
		c1.8,0,3.2-0.3,4.1-0.9c1-0.6,1.4-1.5,1.4-2.6c0-1-0.3-1.8-1-2.3C3,4.3,1.7,3.8-0.2,3.4l-3.2-0.7c-3.2-0.7-5.5-1.8-7-3.3
		c-1.5-1.5-2.2-3.5-2.2-6c0-3.2,1-5.6,3.1-7.3c2.1-1.7,5-2.6,8.8-2.6c1.8,0,3.6,0.1,5.4,0.4C6.6-15.9,8.5-15.5,10.5-15L10.5-15z"/>
</symbol>
<symbol  id="h" viewBox="-13.6 -16.7 27.2 33.4">
	<path d="M-13.6-16.7h7.7L0.5-0.4l5.5-16.2h7.7L3.5,9.5c-1,2.7-2.2,4.5-3.5,5.6c-1.3,1.1-3.1,1.6-5.3,1.6h-4.4v-5h2.4
		c1.3,0,2.2-0.2,2.8-0.6c0.6-0.4,1.1-1.1,1.4-2.2l0.2-0.7L-13.6-16.7z"/>
</symbol>
<symbol  id="i" viewBox="-12.8 -16.9 25.7 33.9">
	<path d="M-0.1,11.4c1.6,0,2.9-0.6,3.8-1.8c0.9-1.2,1.3-2.9,1.3-5.2c0-2.3-0.4-4-1.3-5.2C2.8-2,1.5-2.6-0.1-2.6
		C-1.7-2.6-3-2-3.9-0.8c-0.9,1.2-1.3,2.9-1.3,5.2c0,2.3,0.4,4,1.3,5.2C-3,10.8-1.7,11.4-0.1,11.4L-0.1,11.4z M-5.2-4.1
		C-4.1-5.5-3-6.5-1.7-7.2c1.3-0.7,2.8-1,4.4-1C5.7-8.2,8.1-7,10-4.7c1.9,2.3,2.8,5.4,2.8,9s-0.9,6.7-2.8,9c-1.9,2.3-4.3,3.5-7.3,3.5
		c-1.7,0-3.1-0.3-4.4-1s-2.4-1.7-3.5-3.1v3.5h-7.7v-33.2h7.7V-4.1z"/>
</symbol>
<symbol  id="j" viewBox="-12.8 -16.9 25.7 33.9">
	<path d="M5.1-4.1v-12.8h7.7v33.2H5.1v-3.5c-1.1,1.4-2.2,2.4-3.5,3.1c-1.3,0.7-2.7,1-4.4,1c-2.9,0-5.4-1.2-7.3-3.5
		c-1.9-2.3-2.8-5.4-2.8-9s0.9-6.7,2.8-9C-8.1-7-5.7-8.2-2.7-8.2c1.7,0,3.1,0.3,4.4,1C2.9-6.5,4.1-5.5,5.1-4.1L5.1-4.1z M0.1,11.4
		c1.6,0,2.9-0.6,3.8-1.8c0.9-1.2,1.3-2.9,1.3-5.2c0-2.3-0.4-4-1.3-5.2C3-2,1.7-2.6,0.1-2.6c-1.6,0-2.9,0.6-3.7,1.8
		c-0.9,1.2-1.3,2.9-1.3,5.2c0,2.3,0.4,4,1.3,5.2C-2.8,10.8-1.5,11.4,0.1,11.4z"/>
</symbol>
<symbol  id="k" viewBox="-12 -12.3 24.1 24.5">
	<path d="M12-2.3v14.6H4.3V1.1c0-2.1,0-3.5-0.1-4.3C4.1-4,3.9-4.5,3.7-4.9C3.4-5.4,3-5.8,2.5-6.1C2-6.3,1.4-6.5,0.7-6.5
		c-1.6,0-2.9,0.6-3.8,1.8c-0.9,1.2-1.4,2.9-1.4,5.1v11.8H-12v-23.9h7.7v3.5c1.1-1.4,2.4-2.4,3.7-3.1c1.3-0.7,2.7-1,4.3-1
		c2.8,0,4.9,0.9,6.3,2.5C11.3-8,12-5.6,12-2.3L12-2.3z"/>
</symbol>
<symbol  id="l" viewBox="-13.1 -16.6 26.2 33.2">
	<path d="M-13.1-16.6h7.7V1.5l8.8-8.8h8.9L0.5,3.7l12.6,13H3.9l-9.3-10v10h-7.7L-13.1-16.6z"/>
</symbol>
<symbol  id="m" viewBox="-12.8 -16.8 25.7 33.6">
	<path d="M-5.2,4.3v12.5h-7.7v-33h7.7v3.5c1.1-1.4,2.2-2.4,3.5-3.1c1.3-0.7,2.8-1,4.4-1c2.9,0,5.4,1.2,7.3,3.5
		c1.9,2.3,2.8,5.4,2.8,9s-0.9,6.7-2.8,9C8.1,7.2,5.7,8.3,2.7,8.3c-1.7,0-3.1-0.3-4.4-1S-4.1,5.6-5.2,4.3L-5.2,4.3z M-0.1-11.2
		c-1.6,0-2.9,0.6-3.8,1.8c-0.9,1.2-1.3,2.9-1.3,5.2c0,2.3,0.4,4,1.3,5.2C-3,2.2-1.7,2.8-0.1,2.8c1.6,0,2.9-0.6,3.8-1.8
		C4.5-0.2,4.9-2,4.9-4.2c0-2.3-0.4-4-1.3-5.2C2.8-10.6,1.5-11.3-0.1-11.2L-0.1-11.2z"/>
</symbol>
<g class="st0">
	
		<use xlink:href="#a"  width="24.2" height="25.1" x="-12.1" y="-12.6" transform="matrix(1.2779 0 0 1.2779 121.6093 855.9017)" style="overflow:visible;"/>
	
		<use xlink:href="#f"  width="27.1" height="33.1" x="-13.6" y="-16.5" transform="matrix(1.2779 0 0 1.2779 17.342 850.8104)" style="overflow:visible;"/>
	
		<use xlink:href="#e"  width="17.8" height="24.5" x="-8.9" y="-12.3" transform="matrix(1.2779 0 0 1.2779 54.3126 855.5038)" style="overflow:visible;"/>
	
		<use xlink:href="#b"  width="25.7" height="25.1" x="-12.8" y="-12.6" transform="matrix(1.2779 0 0 1.2779 84.6377 855.9028)" style="overflow:visible;"/>
	
		<use xlink:href="#d"  width="19.3" height="30.7" x="-9.7" y="-15.4" transform="matrix(1.2779 0 0 1.2779 154.5642 851.5295)" style="overflow:visible;"/>
	<g>
		<defs>
			<rect id="SVGID_1_" x="168.2" y="871.2" width="894.5" height="894.5"/>
		</defs>
		<clipPath id="SVGID_00000016777905373819622650000008619632557174482339_" class="st1">
			<use xlink:href="#SVGID_1_"  style="overflow:visible;"/>
		</clipPath>
		<g style="display:inline;clip-path:url(#SVGID_00000016777905373819622650000008619632557174482339_);">
			
				<use xlink:href="#b"  width="25.7" height="25.1" x="-12.8" y="-12.6" transform="matrix(1.2779 0 0 1.2779 187.0111 855.9028)" style="overflow:visible;"/>
		</g>
	</g>
	
		<use xlink:href="#j"  width="25.7" height="33.9" x="-12.8" y="-16.9" transform="matrix(1.2779 0 0 1.2779 225.0398 850.3218)" style="overflow:visible;"/>
	
		<use xlink:href="#i"  width="25.7" height="33.9" x="-12.8" y="-16.9" transform="matrix(1.2779 0 0 1.2779 286.7093 850.3223)" style="overflow:visible;"/>
	
		<use xlink:href="#h"  width="27.2" height="33.4" x="-13.6" y="-16.7" transform="matrix(1.2779 0 0 1.2779 323.6843 861.9029)" style="overflow:visible;"/>
	
		<use xlink:href="#g"  width="25.2" height="33.1" x="-12.6" y="-16.5" transform="matrix(1.2779 0 0 1.2779 381.6303 850.8103)" style="overflow:visible;"/>
	
		<use xlink:href="#c"  width="7.7" height="33.2" x="-3.8" y="-16.6" transform="matrix(1.2779 0 0 1.2779 411.3866 849.9221)" style="overflow:visible;"/>
	<g>
		<defs>
			<rect id="SVGID_00000124854808548620624890000011700869880378906240_" x="421" y="871.2" width="894.5" height="894.5"/>
		</defs>
		<clipPath id="SVGID_00000112621676128797445380000015092341222779567747_" class="st1">
			<use xlink:href="#SVGID_00000124854808548620624890000011700869880378906240_"  style="overflow:visible;"/>
		</clipPath>
		
			<g transform="matrix(1 0 0 1 -3.051758e-05 0)" style="display:inline;clip-path:url(#SVGID_00000112621676128797445380000015092341222779567747_);">
			
				<use xlink:href="#c"  width="7.7" height="33.2" x="-3.8" y="-16.6" transform="matrix(1.2779 0 0 1.2779 430.5504 849.9221)" style="overflow:visible;"/>
		</g>
	</g>
	
		<use xlink:href="#m"  width="25.7" height="33.6" x="-12.8" y="-16.8" transform="matrix(1.2779 0 0 1.2779 461.2354 861.3137)" style="overflow:visible;"/>
	
		<use xlink:href="#l"  width="26.2" height="33.2" x="-13.1" y="-16.6" transform="matrix(1.2779 0 0 1.2779 501.6145 849.923)" style="overflow:visible;"/>
	<g>
		<defs>
			<rect id="SVGID_00000025436792925220061400000009663671068946164372_" x="517.3" y="871.2" width="894.5" height="894.5"/>
		</defs>
		<clipPath id="SVGID_00000008117604847614702840000017983915231244256424_" class="st1">
			<use xlink:href="#SVGID_00000025436792925220061400000009663671068946164372_"  style="overflow:visible;"/>
		</clipPath>
		<g style="display:inline;clip-path:url(#SVGID_00000008117604847614702840000017983915231244256424_);">
			
				<use xlink:href="#a"  width="24.2" height="25.1" x="-12.1" y="-12.6" transform="matrix(1.2779 0 0 1.2779 535.1962 855.9017)" style="overflow:visible;"/>
		</g>
	</g>
	
		<use xlink:href="#k"  width="24.1" height="24.5" x="-12" y="-12.3" transform="matrix(1.2779 0 0 1.2779 575.1247 855.504)" style="overflow:visible;"/>
	<g>
		<defs>
			<rect id="SVGID_00000176014059623458798960000008242172401930079379_" x="614.3" y="871.2" width="894.5" height="894.5"/>
		</defs>
		<clipPath id="SVGID_00000155127823615211648790000002356968422922223035_" class="st1">
			<use xlink:href="#SVGID_00000176014059623458798960000008242172401930079379_"  style="overflow:visible;"/>
		</clipPath>
		<g style="display:inline;clip-path:url(#SVGID_00000155127823615211648790000002356968422922223035_);">
			
				<use xlink:href="#f"  width="27.1" height="33.1" x="-13.6" y="-16.5" transform="matrix(1.2779 0 0 1.2779 634.4427 850.8104)" style="overflow:visible;"/>
		</g>
	</g>
	<g>
		<defs>
			<rect id="SVGID_00000183947110228444469050000013578978392446960774_" x="655.4" y="871.2" width="894.5" height="894.5"/>
		</defs>
		<clipPath id="SVGID_00000074436263961236583570000009415517455954642563_" class="st1">
			<use xlink:href="#SVGID_00000183947110228444469050000013578978392446960774_"  style="overflow:visible;"/>
		</clipPath>
		
			<g transform="matrix(1 0 0 1 0 -6.103516e-05)" style="display:inline;clip-path:url(#SVGID_00000074436263961236583570000009415517455954642563_);">
			
				<use xlink:href="#e"  width="17.8" height="24.5" x="-8.9" y="-12.3" transform="matrix(1.2779 0 0 1.2779 671.4133 855.5038)" style="overflow:visible;"/>
		</g>
	</g>
	<g>
		<defs>
			<rect id="SVGID_00000039102147049699557200000012813115731327597456_" x="682.9" y="871.2" width="894.5" height="894.5"/>
		</defs>
		<clipPath id="SVGID_00000030462911880754607170000015602855013466177941_" class="st1">
			<use xlink:href="#SVGID_00000039102147049699557200000012813115731327597456_"  style="overflow:visible;"/>
		</clipPath>
		<g style="display:inline;clip-path:url(#SVGID_00000030462911880754607170000015602855013466177941_);">
			
				<use xlink:href="#b"  width="25.7" height="25.1" x="-12.8" y="-12.6" transform="matrix(1.2779 0 0 1.2779 701.7383 855.9028)" style="overflow:visible;"/>
		</g>
	</g>
	<g>
		<defs>
			<rect id="SVGID_00000041291467232710243790000013297093796120608438_" x="720.8" y="871.2" width="894.5" height="894.5"/>
		</defs>
		<clipPath id="SVGID_00000042000660312530705850000009481410909996579471_" class="st1">
			<use xlink:href="#SVGID_00000041291467232710243790000013297093796120608438_"  style="overflow:visible;"/>
		</clipPath>
		<g style="display:inline;clip-path:url(#SVGID_00000042000660312530705850000009481410909996579471_);">
			
				<use xlink:href="#a"  width="24.2" height="25.1" x="-12.1" y="-12.6" transform="matrix(1.2779 0 0 1.2779 738.71 855.9017)" style="overflow:visible;"/>
		</g>
	</g>
	<g>
		<defs>
			<rect id="SVGID_00000109710375444040729350000016918541994448875689_" x="758.6" y="871.2" width="894.5" height="894.5"/>
		</defs>
		<clipPath id="SVGID_00000120535623336277845020000011637327278114149510_" class="st1">
			<use xlink:href="#SVGID_00000109710375444040729350000016918541994448875689_"  style="overflow:visible;"/>
		</clipPath>
		<g style="display:inline;clip-path:url(#SVGID_00000120535623336277845020000011637327278114149510_);">
			
				<use xlink:href="#d"  width="19.3" height="30.7" x="-9.7" y="-15.4" transform="matrix(1.2779 0 0 1.2779 771.6649 851.5295)" style="overflow:visible;"/>
		</g>
	</g>
	<g>
		<defs>
			<rect id="SVGID_00000163761704946400126120000001300945921617234339_" x="785.3" y="871.2" width="894.5" height="894.5"/>
		</defs>
		<clipPath id="SVGID_00000168796191633610136800000007859000601205381021_" class="st1">
			<use xlink:href="#SVGID_00000163761704946400126120000001300945921617234339_"  style="overflow:visible;"/>
		</clipPath>
		<g style="display:inline;clip-path:url(#SVGID_00000168796191633610136800000007859000601205381021_);">
			
				<use xlink:href="#c"  width="7.7" height="33.2" x="-3.8" y="-16.6" transform="matrix(1.2779 0 0 1.2779 794.8875 849.9221)" style="overflow:visible;"/>
		</g>
	</g>
</g>
<path d="M152.1,513.9v-37H14.5v37c0,4.3,3.5,7.7,7.7,7.7h122.1c2.1,0,4-0.8,5.5-2.2C151.3,517.9,152.2,515.9,152.1,513.9
	L152.1,513.9z M87.3,503.3L87.3,503.3c-1,1.1-2.5,1.7-4,1.7c-1.5,0-2.9-0.6-4-1.7c-1.1-1-1.7-2.5-1.7-4c0-1.5,0.6-3,1.7-4.1
	c1.6-1.6,4-2.1,6.1-1.3c0.7,0.3,1.3,0.7,1.8,1.3c1.1,1.1,1.7,2.5,1.7,4.1C89,500.8,88.4,502.3,87.3,503.3L87.3,503.3z M152.1,302.9
	H14.5v-15.6c0.1-4.2,3.5-7.5,7.7-7.6h122.1c4.2,0,7.6,3.4,7.7,7.6L152.1,302.9z M151.5,465.5H14.5V314.3h136.9L151.5,465.5z
	 M89,268.4h55.4c5.1,0,9.9,2,13.5,5.5c3.6,3.6,5.6,8.4,5.6,13.5v226.5c0,5.1-2,9.9-5.6,13.5c-3.6,3.6-8.4,5.6-13.5,5.6H89v64.6
	h596.4V203.8H89L89,268.4z M243.3,513.6c10-3.7,18.5-10.8,23.9-20c3.3-5.3,5.1-11.3,5.5-17.5c0.9-12.6,6-24.5,14.4-33.9
	c5.6-7,13.1-12.1,21.7-14.7c8.6-2.6,17.7-2.5,26.2,0.2l34.1-37.1l109.1-118.4c6.1-6.6,14.6-10.5,23.5-10.7c9-0.2,17.6,3.2,24,9.5
	c6.3,6.4,9.8,15.1,9.7,24.1c-0.2,9-4,17.6-10.6,23.7L406.3,427.9l-37,34c3.5,10.1,5,33-32.5,62h0c-12.8,10.2-28.7,15.7-45.1,15.7
	c-17.9-0.4-35.2-5.9-50.1-15.8c-1.8-1.3-2.7-3.4-2.3-5.6C239.7,516,241.2,514.3,243.3,513.6L243.3,513.6z M256.9,519.7L256.9,519.7
	c8.1-5,14.9-11.9,19.9-20c4.2-6.7,6.7-14.4,7.2-22.3c0.7-10.4,5-20.3,12.1-28c4.4-5.4,10.4-9.4,17.1-11.2c6.7-1.8,13.9-1.4,20.4,1.1
	l24.6,24.6c1.6,3.1,9.3,21.9-28.2,51.1c-10.4,7.8-22.8,12.5-35.8,13.3C281.1,529.1,268.2,526.1,256.9,519.7L256.9,519.7z M381.9,399
	c-0.7-1.1-1.3-2.3-1.8-3.4l106.3-115.6l0,0c4-4.3,9.6-6.9,15.5-6.9c5.9-0.1,11.6,2.2,15.7,6.3c4.2,4.2,6.4,9.8,6.3,15.7
	c-0.1,5.9-2.6,11.5-6.9,15.5L401.5,416.9c-1.2-0.5-2.4-1.1-3.5-1.8c-0.7-0.5-1.5-0.8-2.3-1.4c-2.4-1.7-4.7-3.5-6.8-5.6
	c-2.1-2.1-3.9-4.4-5.6-6.8C382.9,400.5,382.4,399.8,381.9,399L381.9,399z M362.8,452.5l-18.3-18.3l27.3-29.6
	c0.2,0.3,0.5,0.6,0.7,0.9c0.8,1.3,1.7,2.6,2.6,3.9v0c0.3,0.6,0.8,1.1,1.2,1.6c1.4,1.8,2.8,3.5,4.4,5.1c1.7,1.6,3.4,3.2,5.2,4.7
	c0.6,0.5,1.1,0.8,1.6,1.3c1.4,0.9,2.6,1.8,3.9,2.6v0c0.3,0.2,0.6,0.4,0.9,0.6L362.8,452.5z M89,102.4v89.9h596.4v-89.9L89,102.4z
	 M138.6,167.7c-5.4,0-10.6-2.1-14.4-5.9c-3.8-3.8-6-9-6-14.3c0-5.4,2.1-10.6,5.9-14.4c3.8-3.8,9-6,14.3-6c5.4,0,10.6,2.1,14.4,5.9
	c3.8,3.8,6,9,6,14.3c0,5.4-2.1,10.5-5.9,14.4C149.1,165.5,144,167.7,138.6,167.7L138.6,167.7z M195.9,167.7c-5.4,0-10.5-2.2-14.3-6
	c-3.8-3.8-5.9-9-5.9-14.3c0-5.4,2.1-10.5,5.9-14.3c3.8-3.8,9-5.9,14.3-5.9s10.5,2.1,14.3,5.9c3.8,3.8,6,8.9,6,14.3
	c0,5.4-2.1,10.6-6,14.4C206.5,165.6,201.3,167.7,195.9,167.7L195.9,167.7z M253.2,167.7c-5.4,0-10.5-2.2-14.3-6
	c-3.8-3.8-5.9-9-5.9-14.3c0-5.4,2.1-10.5,5.9-14.3c3.8-3.8,9-5.9,14.3-5.9s10.5,2.1,14.3,5.9c3.8,3.8,6,8.9,6,14.3
	c0,5.4-2.1,10.6-6,14.4C263.8,165.6,258.6,167.7,253.2,167.7L253.2,167.7z M656.3,162c0,1.5-0.6,3-1.6,4c-1.1,1.1-2.5,1.7-4,1.6
	H387.3c-1.5,0-3-0.6-4-1.6c-1.1-1.1-1.7-2.5-1.7-4v-29.2c0-1.5,0.6-3,1.7-4c1.1-1.1,2.5-1.7,4-1.6h263.4c1.5,0,3,0.6,4,1.6
	c1.1,1.1,1.7,2.5,1.6,4V162z M393,138.5h252v17.9H393L393,138.5z M147.5,147.4c0,3.6-2.1,6.9-5.5,8.3c-3.3,1.4-7.2,0.6-9.7-1.9
	c-2.6-2.6-3.3-6.4-1.9-9.8c1.4-3.3,4.7-5.5,8.3-5.5C143.5,138.5,147.5,142.5,147.5,147.4L147.5,147.4z M204.9,147.4c0,5-4,9-9,9
	c-5,0-9-4-9-9c0.1-4.9,4.1-8.8,9-8.8C200.8,138.5,204.8,142.5,204.9,147.4z M262.2,147.4L262.2,147.4c0,3.6-2.1,7-5.5,8.4
	c-3.3,1.4-7.2,0.7-9.8-1.9c-2.6-2.6-3.4-6.4-2-9.8c1.4-3.4,4.7-5.6,8.3-5.6C258.2,138.5,262.2,142.4,262.2,147.4L262.2,147.4z"/>
</svg>
